<?xml version="1.0" encoding="UTF-8" standalone="no"?>
<!-- Created with Inkscape (http://www.inkscape.org/) -->

<svg
   width="8.4666986mm"
   height="8.4665937mm"
   viewBox="0 0 8.4666986 8.4665937"
   version="1.1"
   id="svg5"
   inkscape:version="1.3.2 (091e20e, 2023-11-25)"
   sodipodi:docname="20240428_MA331_LCD.svg"
   xml:space="preserve"
   xmlns:inkscape="http://www.inkscape.org/namespaces/inkscape"
   xmlns:sodipodi="http://sodipodi.sourceforge.net/DTD/sodipodi-0.dtd"
   xmlns="http://www.w3.org/2000/svg"
   xmlns:svg="http://www.w3.org/2000/svg"><sodipodi:namedview
     id="namedview7"
     pagecolor="#2f2f2f"
     bordercolor="#666666"
     borderopacity="1.0"
     inkscape:pageshadow="2"
     inkscape:pageopacity="0.31764706"
     inkscape:pagecheckerboard="0"
     inkscape:document-units="px"
     showgrid="false"
     inkscape:zoom="0.50709221"
     inkscape:cx="925.86712"
     inkscape:cy="553.15384"
     inkscape:window-width="1920"
     inkscape:window-height="980"
     inkscape:window-x="0"
     inkscape:window-y="25"
     inkscape:window-maximized="1"
     inkscape:current-layer="layer1"
     inkscape:showpageshadow="2"
     inkscape:deskcolor="#2f2f2f"
     inkscape:lockguides="false" /><defs
     id="defs2"><style
       type="text/css"
       id="style6449" /><style
       type="text/css"
       id="style412" /><style
       type="text/css"
       id="style14311" /><style
       type="text/css"
       id="style14846" /><style
       type="text/css"
       id="style11678" /><style
       type="text/css"
       id="style21189" /></defs><g
     inkscape:label="图层 1"
     inkscape:groupmode="layer"
     id="layer1"
     transform="translate(-133.35001,-132.29173)"><g
       id="g92"
       transform="translate(0,-1.0583333)"
       inkscape:export-filename="lvgl_asserts/img/bind.png"
       inkscape:export-xdpi="96"
       inkscape:export-ydpi="96"><path
         d="m 137.51634,140.52761 -0.63517,0.63043 c -0.81381,0.86313 -2.12385,0.88006 -2.95355,0.0381 -0.77411,-0.83352 -0.77014,-2.18323 0.0119,-3.00828 0.0199,-0.0212 0.0397,-0.0381 0.0596,-0.0592 l 1.51647,-1.57818 c 0.32156,-0.33425 0.73045,-0.55004 1.1711,-0.62196 0.45256,-0.0804 0.91306,0 1.31798,0.22424 0.29774,0.15232 0.42477,0.53311 0.28583,0.85044 -0.0516,0.11847 -0.13895,0.22002 -0.2501,0.28348 -0.19849,0.11847 -0.43668,0.11847 -0.63517,0 -0.16277,-0.0846 -0.34538,-0.11 -0.52005,-0.0762 -0.18261,0.0296 -0.35331,0.1227 -0.48829,0.26232 l -1.51647,1.56972 c -0.32949,0.31733 -0.35331,0.8589 -0.0556,1.21008 0.008,0.008 0.0119,0.0169 0.0198,0.0212 0.34141,0.33002 0.86542,0.31309 1.18301,-0.0381 l 0.60738,-0.63043 c 0.24613,-0.25386 0.63517,-0.25386 0.8813,0 0.23819,0.2454 0.24216,0.65158 0.0119,0.90545 -0.004,0.008 -0.008,0.0127 -0.0119,0.0169 z"
         fill="#3cbfdd"
         p-id="5185"
         id="path60050"
         style="fill:#2a7fff;fill-opacity:1;stroke-width:0.00801026" /><path
         d="m 141.18842,137.03699 -1.48868,1.57818 c -0.49623,0.51619 -1.19491,0.74467 -1.87772,0.62197 -0.2898,-0.0508 -0.56769,-0.16924 -0.80985,-0.34695 -0.28185,-0.18616 -0.36919,-0.57965 -0.19849,-0.88006 0.0675,-0.11423 0.16674,-0.20309 0.28186,-0.25809 0.2104,-0.0973 0.45256,-0.0677 0.63517,0.0762 0.0953,0.0677 0.19849,0.11424 0.30965,0.13539 0.27391,0.0339 0.54783,-0.0677 0.74235,-0.27925 l 1.51647,-1.57818 c 0.33744,-0.30887 0.37317,-0.85044 0.0834,-1.21008 -0.0119,-0.0169 -0.0278,-0.0296 -0.0397,-0.0465 -0.3414,-0.33002 -0.86542,-0.3131 -1.183,0.0381 l -0.60739,0.63042 c -0.24612,0.25387 -0.63517,0.25387 -0.8813,0 -0.23819,-0.2454 -0.24215,-0.65158 -0.0119,-0.90544 l 0.0119,-0.0127 0.6193,-0.60081 c 0.80984,-0.85045 2.104,-0.86737 2.93369,-0.0381 0.78603,0.82928 0.79,2.18322 0.0119,3.02097 -0.0159,0.0254 -0.0318,0.0423 -0.0476,0.055 z"
         fill="#9ccef7"
         p-id="5186"
         id="path60052"
         style="fill:#2a7fff;fill-opacity:1;stroke-width:0.00801026" /></g></g><style
     type="text/css"
     id="style407194">
	.st0{fill:#DA0414;}
</style></svg>
