<?xml version="1.0" encoding="UTF-8" standalone="no"?>
<!-- Created with Inkscape (http://www.inkscape.org/) -->

<svg
   width="7.4083333mm"
   height="7.4083257mm"
   viewBox="0 0 7.4083333 7.4083257"
   version="1.1"
   id="svg5"
   inkscape:version="1.3.2 (091e20e, 2023-11-25)"
   sodipodi:docname="20240428_MA331_LCD.svg"
   xml:space="preserve"
   xmlns:inkscape="http://www.inkscape.org/namespaces/inkscape"
   xmlns:sodipodi="http://sodipodi.sourceforge.net/DTD/sodipodi-0.dtd"
   xmlns="http://www.w3.org/2000/svg"
   xmlns:svg="http://www.w3.org/2000/svg"><sodipodi:namedview
     id="namedview7"
     pagecolor="#2f2f2f"
     bordercolor="#666666"
     borderopacity="1.0"
     inkscape:pageshadow="2"
     inkscape:pageopacity="0.31764706"
     inkscape:pagecheckerboard="0"
     inkscape:document-units="px"
     showgrid="false"
     inkscape:zoom="0.50709221"
     inkscape:cx="925.86712"
     inkscape:cy="553.15384"
     inkscape:window-width="1920"
     inkscape:window-height="980"
     inkscape:window-x="0"
     inkscape:window-y="25"
     inkscape:window-maximized="1"
     inkscape:current-layer="layer1"
     inkscape:showpageshadow="2"
     inkscape:deskcolor="#2f2f2f"
     inkscape:lockguides="false" /><defs
     id="defs2"><style
       type="text/css"
       id="style6449" /><style
       type="text/css"
       id="style412" /><style
       type="text/css"
       id="style14311" /><style
       type="text/css"
       id="style14846" /><style
       type="text/css"
       id="style11678" /><style
       type="text/css"
       id="style21189" /></defs><g
     inkscape:label="图层 1"
     inkscape:groupmode="layer"
     id="layer1"
     transform="translate(-159.80834,-113.24169)"><path
       id="path105468-6-84-7-6-4-4"
       style="fill:#adb0b5;fill-opacity:1;stroke-width:0.264584"
       d="m 163.51249,113.24168 a 3.7041519,3.7041519 0 0 0 -3.70416,3.70416 3.7041519,3.7041519 0 0 0 3.70416,3.70417 3.7041519,3.7041519 0 0 0 3.70417,-3.70417 3.7041519,3.7041519 0 0 0 -3.70417,-3.70416 z m 0,0.8015 a 2.9022355,2.9022355 0 0 1 2.90163,2.90266 2.9022355,2.9022355 0 0 1 -2.90163,2.90164 2.9022355,2.9022355 0 0 1 -2.90266,-2.90164 2.9022355,2.9022355 0 0 1 2.90266,-2.90266 z"
       inkscape:export-filename="lvgl_asserts/img/bind_confirm.png"
       inkscape:export-xdpi="96"
       inkscape:export-ydpi="96" /></g><style
     type="text/css"
     id="style407194">
	.st0{fill:#DA0414;}
</style></svg>
