<?xml version="1.0" encoding="UTF-8" standalone="no"?>
<!-- Created with Inkscape (http://www.inkscape.org/) -->

<svg
   width="3.175mm"
   height="5.2917151mm"
   viewBox="0 0 3.175 5.2917151"
   version="1.1"
   id="svg5"
   inkscape:version="1.3.2 (091e20e, 2023-11-25)"
   sodipodi:docname="20240428_MA331_LCD.svg"
   xml:space="preserve"
   xmlns:inkscape="http://www.inkscape.org/namespaces/inkscape"
   xmlns:sodipodi="http://sodipodi.sourceforge.net/DTD/sodipodi-0.dtd"
   xmlns="http://www.w3.org/2000/svg"
   xmlns:svg="http://www.w3.org/2000/svg"><sodipodi:namedview
     id="namedview7"
     pagecolor="#2f2f2f"
     bordercolor="#666666"
     borderopacity="1.0"
     inkscape:pageshadow="2"
     inkscape:pageopacity="0.31764706"
     inkscape:pagecheckerboard="0"
     inkscape:document-units="px"
     showgrid="false"
     inkscape:zoom="0.50709221"
     inkscape:cx="925.86712"
     inkscape:cy="553.15384"
     inkscape:window-width="1920"
     inkscape:window-height="980"
     inkscape:window-x="0"
     inkscape:window-y="25"
     inkscape:window-maximized="1"
     inkscape:current-layer="layer1"
     inkscape:showpageshadow="2"
     inkscape:deskcolor="#2f2f2f"
     inkscape:lockguides="false" /><defs
     id="defs2"><style
       type="text/css"
       id="style6449" /><style
       type="text/css"
       id="style412" /><style
       type="text/css"
       id="style14311" /><style
       type="text/css"
       id="style14846" /><style
       type="text/css"
       id="style11678" /><style
       type="text/css"
       id="style21189" /></defs><g
     inkscape:label="图层 1"
     inkscape:groupmode="layer"
     id="layer1"
     transform="translate(-29.953582,-189.75947)"><g
       id="g26472"
       transform="translate(-3.8525735,197.6438)"><rect
         style="fill:#000000;stroke-width:0.149374"
         id="rect5012-7-6"
         width="3.175"
         height="5.2916665"
         x="33.806156"
         y="-7.8843369" /><path
         d="m 34.335291,-2.5926278 v -0.70752 l 1.28114,-2.55738 q 0.0975,-0.19162 0.11141,-0.33165 0.0139,-0.1474 0.0139,-0.36113 0,-0.0958 -0.007,-0.19899 0,-0.11055 -0.0348,-0.19162 -0.0348,-0.0811 -0.10444,-0.13266 -0.0696,-0.059 -0.20192,-0.059 -0.16015,0 -0.25762,0.0958 -0.0905,0.0958 -0.0905,0.28006 v 0.42746 h -0.7102 v -0.41272 q 0,-0.23583 0.0836,-0.44219 0.0835,-0.20636 0.22977,-0.36113 0.13925,-0.15477 0.33421,-0.24322 0.19496,-0.0958 0.41776,-0.0958 0.27851,0 0.47347,0.11055 0.20192,0.10318 0.33421,0.28743 0.12533,0.18424 0.18103,0.42009 0.0627,0.23583 0.0627,0.50116 0,0.19161 -0.007,0.32427 -0.007,0.12529 -0.0278,0.24321 -0.0209,0.11792 -0.0696,0.23584 -0.0487,0.11792 -0.13229,0.28743 l -1.04441,2.12992 h 1.28114 v 0.75174 z"
         style="font-size:7.30893px;font-family:'DIN Condensed';-inkscape-font-specification:'DIN Condensed, ';text-align:center;text-anchor:middle;fill:#ffffff;stroke-width:0.107452"
         id="path4925-5" /></g></g><style
     type="text/css"
     id="style407194">
	.st0{fill:#DA0414;}
</style></svg>
