<?xml version="1.0" encoding="UTF-8" standalone="no"?>
<!-- Created with Inkscape (http://www.inkscape.org/) -->

<svg
   width="3.175mm"
   height="5.2916989mm"
   viewBox="0 0 3.175 5.2916989"
   version="1.1"
   id="svg5"
   inkscape:version="1.3.2 (091e20e, 2023-11-25)"
   sodipodi:docname="20240428_MA331_LCD.svg"
   xml:space="preserve"
   xmlns:inkscape="http://www.inkscape.org/namespaces/inkscape"
   xmlns:sodipodi="http://sodipodi.sourceforge.net/DTD/sodipodi-0.dtd"
   xmlns="http://www.w3.org/2000/svg"
   xmlns:svg="http://www.w3.org/2000/svg"><sodipodi:namedview
     id="namedview7"
     pagecolor="#2f2f2f"
     bordercolor="#666666"
     borderopacity="1.0"
     inkscape:pageshadow="2"
     inkscape:pageopacity="0.31764706"
     inkscape:pagecheckerboard="0"
     inkscape:document-units="px"
     showgrid="false"
     inkscape:zoom="0.50709221"
     inkscape:cx="925.86712"
     inkscape:cy="553.15384"
     inkscape:window-width="1920"
     inkscape:window-height="980"
     inkscape:window-x="0"
     inkscape:window-y="25"
     inkscape:window-maximized="1"
     inkscape:current-layer="layer1"
     inkscape:showpageshadow="2"
     inkscape:deskcolor="#2f2f2f"
     inkscape:lockguides="false" /><defs
     id="defs2"><style
       type="text/css"
       id="style6449" /><style
       type="text/css"
       id="style412" /><style
       type="text/css"
       id="style14311" /><style
       type="text/css"
       id="style14846" /><style
       type="text/css"
       id="style11678" /><style
       type="text/css"
       id="style21189" /></defs><g
     inkscape:label="图层 1"
     inkscape:groupmode="layer"
     id="layer1"
     transform="translate(-57.321817,-189.75947)"><g
       id="g26504"
       transform="translate(-3.8525735,197.6438)"><rect
         style="fill:#000000;stroke-width:0.149374"
         id="rect5012-9-3"
         width="3.175"
         height="5.2916665"
         x="61.174389"
         y="-7.8843369" /><path
         d="m 61.703544,-6.7660578 q 0,-0.26312 0.0836,-0.46777 0.0905,-0.20465 0.23673,-0.35083 0.14622,-0.14618 0.33421,-0.21926 0.19495,-0.0804 0.40384,-0.0804 0.20888,0 0.39687,0.0804 0.19495,0.0731 0.34117,0.21926 0.14622,0.14618 0.22977,0.35083 0.0905,0.20465 0.0905,0.46777 v 3.05514 q 0,0.26312 -0.0905,0.46777 -0.0836,0.20465 -0.22977,0.35083 -0.14622,0.14618 -0.34117,0.22657 -0.18799,0.0731 -0.39687,0.0731 -0.20889,0 -0.40384,-0.0731 -0.18799,-0.0804 -0.33421,-0.22657 -0.14622,-0.14618 -0.23673,-0.35083 -0.0836,-0.20465 -0.0836,-0.46777 z m 0.71019,3.05514 q 0,0.16079 0.0975,0.27043 0.0975,0.10232 0.25066,0.10232 0.15318,0 0.25066,-0.10232 0.0975,-0.10964 0.0975,-0.27043 v -3.05514 q 0,-0.16079 -0.0975,-0.26312 -0.0975,-0.10963 -0.25066,-0.10963 -0.15318,0 -0.25066,0.10963 -0.0975,0.10233 -0.0975,0.26312 z"
         style="font-size:7.30893px;font-family:'DIN Condensed';-inkscape-font-specification:'DIN Condensed, ';text-align:center;text-anchor:middle;fill:#ffffff;stroke-width:0.107006"
         id="path4941-8" /></g></g><style
     type="text/css"
     id="style407194">
	.st0{fill:#DA0414;}
</style></svg>
