<?xml version="1.0" encoding="UTF-8" standalone="no"?>
<!-- Created with Inkscape (http://www.inkscape.org/) -->

<svg
   width="3.175mm"
   height="5.2916832mm"
   viewBox="0 0 3.175 5.2916832"
   version="1.1"
   id="svg5"
   inkscape:version="1.3.2 (091e20e, 2023-11-25)"
   sodipodi:docname="20240428_MA331_LCD.svg"
   xml:space="preserve"
   xmlns:inkscape="http://www.inkscape.org/namespaces/inkscape"
   xmlns:sodipodi="http://sodipodi.sourceforge.net/DTD/sodipodi-0.dtd"
   xmlns="http://www.w3.org/2000/svg"
   xmlns:svg="http://www.w3.org/2000/svg"><sodipodi:namedview
     id="namedview7"
     pagecolor="#2f2f2f"
     bordercolor="#666666"
     borderopacity="1.0"
     inkscape:pageshadow="2"
     inkscape:pageopacity="0.31764706"
     inkscape:pagecheckerboard="0"
     inkscape:document-units="px"
     showgrid="false"
     inkscape:zoom="0.50709221"
     inkscape:cx="925.86712"
     inkscape:cy="553.15384"
     inkscape:window-width="1920"
     inkscape:window-height="980"
     inkscape:window-x="0"
     inkscape:window-y="25"
     inkscape:window-maximized="1"
     inkscape:current-layer="layer1"
     inkscape:showpageshadow="2"
     inkscape:deskcolor="#2f2f2f"
     inkscape:lockguides="false" /><defs
     id="defs2"><style
       type="text/css"
       id="style6449" /><style
       type="text/css"
       id="style412" /><style
       type="text/css"
       id="style14311" /><style
       type="text/css"
       id="style14846" /><style
       type="text/css"
       id="style11678" /><style
       type="text/css"
       id="style21189" /></defs><g
     inkscape:label="图层 1"
     inkscape:groupmode="layer"
     id="layer1"
     transform="translate(-33.374612,-189.75947)"><g
       id="g26476"
       transform="translate(-3.8525735,197.6438)"><rect
         style="fill:#000000;stroke-width:0.149374"
         id="rect5012-8-3"
         width="3.175"
         height="5.2916665"
         x="37.227184"
         y="-7.8843369" /><path
         d="m 38.598814,-5.6477878 q 0.32028,0 0.43864,-0.0804 0.12533,-0.0804 0.12533,-0.37275 v -0.67243 q 0,-0.16079 -0.0975,-0.26312 -0.0905,-0.10232 -0.25065,-0.10232 -0.188,0 -0.27155,0.12425 -0.0766,0.12425 -0.0766,0.24119 v 0.42392 h -0.71019 v -0.43122 q 0,-0.22658 0.0836,-0.43123 0.0836,-0.20465 0.22977,-0.35083 0.14621,-0.14618 0.34117,-0.23389 0.19495,-0.0877 0.41776,-0.0877 0.29243,0 0.48042,0.12425 0.19496,0.11694 0.29243,0.24119 0.0696,0.0877 0.11837,0.17542 0.0557,0.0877 0.0905,0.21196 0.0627,0.24119 0.0627,0.71627 0,0.27043 -0.0139,0.43854 -0.007,0.1681 -0.0487,0.27774 -0.0487,0.11694 -0.13925,0.19734 -0.0836,0.0804 -0.23673,0.17541 0.1671,0.10964 0.25065,0.20465 0.0905,0.095 0.13229,0.21927 0.0418,0.13156 0.0487,0.31428 0.007,0.17542 0.007,0.45316 0,0.25581 -0.0139,0.42392 -0.007,0.1681 -0.0279,0.27774 -0.0209,0.11694 -0.0557,0.19734 -0.0348,0.0804 -0.0905,0.1681 -0.13229,0.20465 -0.34117,0.34352 -0.20192,0.13156 -0.53612,0.13156 -0.16711,0 -0.3551,-0.0585 -0.18799,-0.0585 -0.34117,-0.19003 -0.15318,-0.13156 -0.25762,-0.34352 -0.0975,-0.21196 -0.0975,-0.51893 v -0.42392 h 0.71019 v 0.38737 q 0,0.17541 0.0905,0.29236 0.0975,0.10963 0.25762,0.10963 0.16014,0 0.25066,-0.10963 0.0975,-0.11695 0.0975,-0.30698 v -0.74551 q 0,-0.30697 -0.1114,-0.40199 -0.0627,-0.0585 -0.17407,-0.0731 -0.10444,-0.0146 -0.27851,-0.0146 z"
         style="font-size:7.30893px;font-family:'DIN Condensed';-inkscape-font-specification:'DIN Condensed, ';text-align:center;text-anchor:middle;fill:#ffffff;stroke-width:0.107005"
         id="path4927-2" /></g></g><style
     type="text/css"
     id="style407194">
	.st0{fill:#DA0414;}
</style></svg>
