<?xml version="1.0" encoding="UTF-8" standalone="no"?>
<!-- Created with Inkscape (http://www.inkscape.org/) -->

<svg
   width="3.175mm"
   height="5.2916832mm"
   viewBox="0 0 3.175 5.2916832"
   version="1.1"
   id="svg5"
   inkscape:version="1.3.2 (091e20e, 2023-11-25)"
   sodipodi:docname="20240428_MA331_LCD.svg"
   xml:space="preserve"
   xmlns:inkscape="http://www.inkscape.org/namespaces/inkscape"
   xmlns:sodipodi="http://sodipodi.sourceforge.net/DTD/sodipodi-0.dtd"
   xmlns="http://www.w3.org/2000/svg"
   xmlns:svg="http://www.w3.org/2000/svg"><sodipodi:namedview
     id="namedview7"
     pagecolor="#2f2f2f"
     bordercolor="#666666"
     borderopacity="1.0"
     inkscape:pageshadow="2"
     inkscape:pageopacity="0.31764706"
     inkscape:pagecheckerboard="0"
     inkscape:document-units="px"
     showgrid="false"
     inkscape:zoom="0.50709221"
     inkscape:cx="925.86712"
     inkscape:cy="553.15384"
     inkscape:window-width="1920"
     inkscape:window-height="980"
     inkscape:window-x="0"
     inkscape:window-y="25"
     inkscape:window-maximized="1"
     inkscape:current-layer="layer1"
     inkscape:showpageshadow="2"
     inkscape:deskcolor="#2f2f2f"
     inkscape:lockguides="false" /><defs
     id="defs2"><style
       type="text/css"
       id="style6449" /><style
       type="text/css"
       id="style412" /><style
       type="text/css"
       id="style14311" /><style
       type="text/css"
       id="style14846" /><style
       type="text/css"
       id="style11678" /><style
       type="text/css"
       id="style21189" /></defs><g
     inkscape:label="图层 1"
     inkscape:groupmode="layer"
     id="layer1"
     transform="translate(-50.479761,-189.75947)"><g
       id="g26496"
       transform="translate(-3.8525735,197.6438)"><rect
         style="fill:#000000;stroke-width:0.149374"
         id="rect5012-877-1"
         width="3.175"
         height="5.2916665"
         x="54.332333"
         y="-7.8843369" /><path
         d="m 56.268018,-6.7733678 q 0,-0.15348 -0.10444,-0.25581 -0.10444,-0.10963 -0.24369,-0.10963 -0.13926,0 -0.2437,0.10963 -0.10444,0.10233 -0.10444,0.25581 v 0.76013 q 0,0.15349 0.10444,0.26312 0.10444,0.10233 0.2437,0.10233 0.13925,0 0.24369,-0.10233 0.10444,-0.10963 0.10444,-0.26312 z m -1.40647,0.29236 q 0,-0.21196 0.0139,-0.35814 0.0139,-0.15348 0.0487,-0.26312 0.0348,-0.10963 0.0766,-0.19734 0.0487,-0.0877 0.11837,-0.18272 0.13925,-0.19003 0.34814,-0.29236 0.20888,-0.10963 0.45257,-0.10963 0.2437,0 0.45258,0.10963 0.20888,0.10233 0.34813,0.29236 0.0696,0.095 0.11837,0.18272 0.0487,0.0877 0.0836,0.19734 0.0348,0.10964 0.0418,0.26312 0.0139,0.14618 0.0139,0.35814 0,0.23389 -0.007,0.39468 -0.007,0.1608 -0.0418,0.28505 -0.0348,0.12425 -0.11141,0.22658 -0.0696,0.095 -0.19495,0.20465 0.12533,0.10232 0.19495,0.20465 0.0766,0.10232 0.11141,0.24119 0.0348,0.13887 0.0418,0.34352 0.007,0.19734 0.007,0.4897 0,0.2412 -0.0139,0.40199 -0.007,0.15349 -0.0279,0.27043 -0.0209,0.11695 -0.0627,0.19734 -0.0348,0.0804 -0.0905,0.16811 -0.11837,0.19003 -0.33421,0.3289 -0.21585,0.13156 -0.52917,0.13156 -0.31332,0 -0.52916,-0.13156 -0.21585,-0.13887 -0.33421,-0.3289 -0.0557,-0.0877 -0.0975,-0.16811 -0.0348,-0.0804 -0.0557,-0.19734 -0.0209,-0.11694 -0.0348,-0.27043 -0.007,-0.16079 -0.007,-0.40199 0,-0.29236 0.007,-0.4897 0.007,-0.20465 0.0418,-0.34352 0.0348,-0.13887 0.10444,-0.24119 0.0766,-0.10233 0.20192,-0.20465 -0.12533,-0.10963 -0.20192,-0.20465 -0.0696,-0.10233 -0.10444,-0.22658 -0.0348,-0.12425 -0.0418,-0.28505 -0.007,-0.16079 -0.007,-0.39468 z m 1.40647,1.75415 q 0,-0.15349 -0.10444,-0.25582 -0.10444,-0.10963 -0.24369,-0.10963 -0.13926,0 -0.2437,0.10963 -0.10444,0.10233 -0.10444,0.25582 v 1.02325 q 0,0.15348 0.10444,0.26312 0.10444,0.10232 0.2437,0.10232 0.13925,0 0.24369,-0.10232 0.10444,-0.10964 0.10444,-0.26312 z"
         style="font-size:7.30893px;font-family:'DIN Condensed';-inkscape-font-specification:'DIN Condensed, ';text-align:center;text-anchor:middle;fill:#ffffff;stroke-width:0.107006"
         id="path4937-9" /></g></g><style
     type="text/css"
     id="style407194">
	.st0{fill:#DA0414;}
</style></svg>
