<?xml version="1.0" encoding="UTF-8" standalone="no"?>
<!-- Created with Inkscape (http://www.inkscape.org/) -->

<svg
   width="3.175mm"
   height="5.291667mm"
   viewBox="0 0 3.175 5.291667"
   version="1.1"
   id="svg5"
   inkscape:version="1.3.2 (091e20e, 2023-11-25)"
   sodipodi:docname="20240428_MA331_LCD.svg"
   xml:space="preserve"
   xmlns:inkscape="http://www.inkscape.org/namespaces/inkscape"
   xmlns:sodipodi="http://sodipodi.sourceforge.net/DTD/sodipodi-0.dtd"
   xmlns="http://www.w3.org/2000/svg"
   xmlns:svg="http://www.w3.org/2000/svg"><sodipodi:namedview
     id="namedview7"
     pagecolor="#2f2f2f"
     bordercolor="#666666"
     borderopacity="1.0"
     inkscape:pageshadow="2"
     inkscape:pageopacity="0.31764706"
     inkscape:pagecheckerboard="0"
     inkscape:document-units="px"
     showgrid="false"
     inkscape:zoom="0.50709221"
     inkscape:cx="925.86712"
     inkscape:cy="553.15384"
     inkscape:window-width="1920"
     inkscape:window-height="980"
     inkscape:window-x="0"
     inkscape:window-y="25"
     inkscape:window-maximized="1"
     inkscape:current-layer="layer1"
     inkscape:showpageshadow="2"
     inkscape:deskcolor="#2f2f2f"
     inkscape:lockguides="false" /><defs
     id="defs2"><style
       type="text/css"
       id="style6449" /><style
       type="text/css"
       id="style412" /><style
       type="text/css"
       id="style14311" /><style
       type="text/css"
       id="style14846" /><style
       type="text/css"
       id="style11678" /><style
       type="text/css"
       id="style21189" /></defs><g
     inkscape:label="图层 1"
     inkscape:groupmode="layer"
     id="layer1"
     transform="translate(-40.216668,-189.75947)"><g
       id="g26484"
       transform="translate(-3.8525735,197.6438)"><rect
         style="fill:#000000;stroke-width:0.149374"
         id="rect5012-1-3"
         width="3.175"
         height="5.2916665"
         x="44.069241"
         y="-7.8843369" /><path
         d="m 46.715091,-7.8842878 v 0.70752 h -1.40647 v 1.41502 q 0.0975,-0.10318 0.25066,-0.16951 0.15319,-0.0737 0.34117,-0.0737 0.36207,0 0.58487,0.23584 0.22977,0.22847 0.22977,0.69277 v 1.35607 q 0,0.26532 -0.0905,0.47168 -0.0836,0.20636 -0.22976,0.35376 -0.14623,0.1474 -0.34118,0.22846 -0.18799,0.0737 -0.39687,0.0737 -0.20889,0 -0.40384,-0.0737 -0.188,-0.0811 -0.33421,-0.22846 -0.14623,-0.1474 -0.23674,-0.35376 -0.0836,-0.20636 -0.0836,-0.47168 v -0.2211 h 0.7102 v 0.19162 q 0,0.19162 0.0975,0.30217 0.10443,0.10317 0.26458,0.10317 0.16015,0 0.2437,-0.10317 0.0905,-0.10318 0.0905,-0.28743 v -1.23077 q 0,-0.15478 -0.0975,-0.26532 -0.0905,-0.11056 -0.23673,-0.11056 -0.0905,0 -0.15319,0.0368 -0.0627,0.0294 -0.10443,0.0737 -0.0418,0.0442 -0.0627,0.0958 -0.0348,0.0663 -0.0418,0.0811 h -0.62666 v -2.83005 z"
         style="font-size:7.30893px;font-family:'DIN Condensed';-inkscape-font-specification:'DIN Condensed, ';text-align:center;text-anchor:middle;fill:#ffffff;stroke-width:0.107452"
         id="path4931-9" /></g></g><style
     type="text/css"
     id="style407194">
	.st0{fill:#DA0414;}
</style></svg>
