<?xml version="1.0" encoding="UTF-8" standalone="no"?>
<!-- Created with Inkscape (http://www.inkscape.org/) -->

<svg
   width="8.4668598mm"
   height="3.1750002mm"
   viewBox="0 0 8.4668598 3.1750002"
   version="1.1"
   id="svg5"
   inkscape:version="1.3.2 (091e20e, 2023-11-25)"
   sodipodi:docname="20240428_MA331_LCD.svg"
   xml:space="preserve"
   xmlns:inkscape="http://www.inkscape.org/namespaces/inkscape"
   xmlns:sodipodi="http://sodipodi.sourceforge.net/DTD/sodipodi-0.dtd"
   xmlns="http://www.w3.org/2000/svg"
   xmlns:svg="http://www.w3.org/2000/svg"><sodipodi:namedview
     id="namedview7"
     pagecolor="#2f2f2f"
     bordercolor="#666666"
     borderopacity="1.0"
     inkscape:pageshadow="2"
     inkscape:pageopacity="0.31764706"
     inkscape:pagecheckerboard="0"
     inkscape:document-units="px"
     showgrid="false"
     inkscape:zoom="0.71713668"
     inkscape:cx="268.42861"
     inkscape:cy="391.13883"
     inkscape:window-width="1152"
     inkscape:window-height="942"
     inkscape:window-x="0"
     inkscape:window-y="25"
     inkscape:window-maximized="0"
     inkscape:current-layer="layer1"
     inkscape:showpageshadow="2"
     inkscape:deskcolor="#2f2f2f"
     inkscape:lockguides="false" /><defs
     id="defs2"><style
       type="text/css"
       id="style6449" /><style
       type="text/css"
       id="style412" /><style
       type="text/css"
       id="style14311" /><style
       type="text/css"
       id="style14846" /><style
       type="text/css"
       id="style11678" /><style
       type="text/css"
       id="style21189" /></defs><g
     inkscape:label="图层 1"
     inkscape:groupmode="layer"
     id="layer1"
     transform="translate(-371.8719,-76.200002)"><path
       id="path70-9-6-2-9"
       style="fill:#595959;fill-opacity:1;stroke-width:0.396184"
       d="m 372.40107,76.2 c -0.29316,0 -0.52916,0.236011 -0.52916,0.529166 v 2.116667 c 0,0.293155 0.236,0.529167 0.52916,0.529167 h 3.43959 3.175 c 0.29316,0 0.52916,-0.236012 0.52916,-0.529167 v -2.116667 c 0,-0.293155 -0.236,-0.529166 -0.52916,-0.529166 h -3.175 z m 0,0.529166 h 3.99149 0.74828 1.87482 v 2.116667 h -3.99149 -0.74828 -1.87482 z m 7.40834,0.264584 v 1.5875 a 0.83354649,0.83354649 0 0 0 0.52916,-0.79375 v -0.03514 a 0.80800149,0.80800149 0 0 0 -0.52916,-0.75861 z" /></g><style
     type="text/css"
     id="style407194">
	.st0{fill:#DA0414;}
</style></svg>
