<?xml version="1.0" encoding="UTF-8" standalone="no"?>
<!-- Created with Inkscape (http://www.inkscape.org/) -->

<svg
   width="3.175mm"
   height="5.291667mm"
   viewBox="0 0 3.175 5.291667"
   version="1.1"
   id="svg5"
   inkscape:version="1.3.2 (091e20e, 2023-11-25)"
   sodipodi:docname="20240428_MA331_LCD.svg"
   xml:space="preserve"
   xmlns:inkscape="http://www.inkscape.org/namespaces/inkscape"
   xmlns:sodipodi="http://sodipodi.sourceforge.net/DTD/sodipodi-0.dtd"
   xmlns="http://www.w3.org/2000/svg"
   xmlns:svg="http://www.w3.org/2000/svg"><sodipodi:namedview
     id="namedview7"
     pagecolor="#2f2f2f"
     bordercolor="#666666"
     borderopacity="1.0"
     inkscape:pageshadow="2"
     inkscape:pageopacity="0.31764706"
     inkscape:pagecheckerboard="0"
     inkscape:document-units="px"
     showgrid="false"
     inkscape:zoom="0.50709221"
     inkscape:cx="925.86712"
     inkscape:cy="553.15384"
     inkscape:window-width="1920"
     inkscape:window-height="980"
     inkscape:window-x="0"
     inkscape:window-y="25"
     inkscape:window-maximized="1"
     inkscape:current-layer="layer1"
     inkscape:showpageshadow="2"
     inkscape:deskcolor="#2f2f2f"
     inkscape:lockguides="false" /><defs
     id="defs2"><style
       type="text/css"
       id="style6449" /><style
       type="text/css"
       id="style412" /><style
       type="text/css"
       id="style14311" /><style
       type="text/css"
       id="style14846" /><style
       type="text/css"
       id="style11678" /><style
       type="text/css"
       id="style21189" /></defs><g
     inkscape:label="图层 1"
     inkscape:groupmode="layer"
     id="layer1"
     transform="translate(-77.847964,-189.75944)"><g
       id="g65242"
       transform="translate(-3.8525735,197.6438)"><rect
         style="fill:#000000;stroke-width:0.149374"
         id="rect5012-58-4-8-2-3"
         width="3.175"
         height="5.2916665"
         x="81.700531"
         y="-7.8843503" /><path
         d="m 84.374638,-3.5770176 0.500893,0.1588198 q -0.115188,0.4188655 -0.38396,0.6230625 -0.267027,0.2024515 -0.678911,0.2024515 -0.509619,0 -0.837731,-0.3473093 -0.328111,-0.3490545 -0.328111,-0.9529188 0,-0.6387698 0.329857,-0.9913149 0.329856,-0.3542903 0.8674,-0.3542903 0.469479,0 0.762684,0.2774983 0.174527,0.1640557 0.261791,0.4712236 l -0.511365,0.1221691 q -0.04538,-0.1989611 -0.190234,-0.314149 -0.143113,-0.115188 -0.349055,-0.115188 -0.284479,0 -0.462497,0.2041969 -0.176273,0.2041969 -0.176273,0.6614583 0,0.4851857 0.174527,0.6911279 0.174528,0.2059422 0.453771,0.2059422 0.205943,0 0.354291,-0.1308955 0.148348,-0.1308955 0.212923,-0.4118843 z"
         style="font-weight:bold;font-size:14.1111px;font-family:Arial;-inkscape-font-specification:'Arial Bold';text-align:center;text-anchor:middle;fill:#ffffff;stroke-width:0.0536149"
         id="path33373" /><path
         id="path35151"
         style="fill:#ffffff;fill-opacity:1;stroke-width:0.215027"
         d="m 82.229698,-6.0322668 a 0.52916664,0.52916664 0 0 0 -0.529167,0.5291667 0.52916664,0.52916664 0 0 0 0.529167,0.5291666 0.52916664,0.52916664 0 0 0 0.529166,-0.5291666 0.52916664,0.52916664 0 0 0 -0.529166,-0.5291667 z m 0,0.2645834 a 0.26458332,0.26458332 0 0 1 0.264583,0.2645833 0.26458332,0.26458332 0 0 1 -0.264583,0.2645833 0.26458332,0.26458332 0 0 1 -0.264584,-0.2645833 0.26458332,0.26458332 0 0 1 0.264584,-0.2645833 z" /></g></g><style
     type="text/css"
     id="style407194">
	.st0{fill:#DA0414;}
</style></svg>
