<?xml version="1.0" encoding="UTF-8" standalone="no"?>
<!-- Created with Inkscape (http://www.inkscape.org/) -->

<svg
   width="3.175mm"
   height="5.291667mm"
   viewBox="0 0 3.175 5.291667"
   version="1.1"
   id="svg5"
   inkscape:version="1.3.2 (091e20e, 2023-11-25)"
   sodipodi:docname="20240428_MA331_LCD.svg"
   xml:space="preserve"
   xmlns:inkscape="http://www.inkscape.org/namespaces/inkscape"
   xmlns:sodipodi="http://sodipodi.sourceforge.net/DTD/sodipodi-0.dtd"
   xmlns="http://www.w3.org/2000/svg"
   xmlns:svg="http://www.w3.org/2000/svg"><sodipodi:namedview
     id="namedview7"
     pagecolor="#2f2f2f"
     bordercolor="#666666"
     borderopacity="1.0"
     inkscape:pageshadow="2"
     inkscape:pageopacity="0.31764706"
     inkscape:pagecheckerboard="0"
     inkscape:document-units="px"
     showgrid="false"
     inkscape:zoom="0.50709221"
     inkscape:cx="925.86712"
     inkscape:cy="553.15384"
     inkscape:window-width="1920"
     inkscape:window-height="980"
     inkscape:window-x="0"
     inkscape:window-y="25"
     inkscape:window-maximized="1"
     inkscape:current-layer="layer1"
     inkscape:showpageshadow="2"
     inkscape:deskcolor="#2f2f2f"
     inkscape:lockguides="false" /><defs
     id="defs2"><style
       type="text/css"
       id="style6449" /><style
       type="text/css"
       id="style412" /><style
       type="text/css"
       id="style14311" /><style
       type="text/css"
       id="style14846" /><style
       type="text/css"
       id="style11678" /><style
       type="text/css"
       id="style21189" /></defs><g
     inkscape:label="图层 1"
     inkscape:groupmode="layer"
     id="layer1"
     transform="translate(-81.268984,-189.75944)"><g
       id="g65247"
       transform="translate(-3.8525735,197.6438)"><rect
         style="fill:#000000;stroke-width:0.149374"
         id="rect5012-58-4-8-2-3-6"
         width="3.175"
         height="5.2916665"
         x="85.121552"
         y="-7.8843503" /><path
         d="M 86.482729,-2.5926838 V -5.238517 h 1.813822 v 0.4475898 h -1.279602 v 0.6262648 h 1.104536 v 0.4475898 h -1.104536 v 1.1243888 z"
         style="font-weight:bold;font-size:14.1111px;font-family:Arial;-inkscape-font-specification:'Arial Bold';text-align:center;text-anchor:middle;fill:#ffffff;stroke-width:0.0554435"
         id="path33375" /><path
         id="path35151-4"
         style="fill:#ffffff;fill-opacity:1;stroke-width:0.215027"
         d="m 85.650719,-6.0322668 a 0.52916664,0.52916664 0 0 0 -0.529167,0.5291667 0.52916664,0.52916664 0 0 0 0.529167,0.5291666 0.52916664,0.52916664 0 0 0 0.529166,-0.5291666 0.52916664,0.52916664 0 0 0 -0.529166,-0.5291667 z m 0,0.2645834 a 0.26458332,0.26458332 0 0 1 0.264583,0.2645833 0.26458332,0.26458332 0 0 1 -0.264583,0.2645833 0.26458332,0.26458332 0 0 1 -0.264584,-0.2645833 0.26458332,0.26458332 0 0 1 0.264584,-0.2645833 z" /></g></g><style
     type="text/css"
     id="style407194">
	.st0{fill:#DA0414;}
</style></svg>
