<?xml version="1.0" encoding="UTF-8" standalone="no"?>
<!-- Created with Inkscape (http://www.inkscape.org/) -->

<svg
   width="3.175mm"
   height="5.291667mm"
   viewBox="0 0 3.175 5.291667"
   version="1.1"
   id="svg5"
   inkscape:version="1.3.2 (091e20e, 2023-11-25)"
   sodipodi:docname="20240428_MA331_LCD.svg"
   xml:space="preserve"
   xmlns:inkscape="http://www.inkscape.org/namespaces/inkscape"
   xmlns:sodipodi="http://sodipodi.sourceforge.net/DTD/sodipodi-0.dtd"
   xmlns="http://www.w3.org/2000/svg"
   xmlns:svg="http://www.w3.org/2000/svg"><sodipodi:namedview
     id="namedview7"
     pagecolor="#2f2f2f"
     bordercolor="#666666"
     borderopacity="1.0"
     inkscape:pageshadow="2"
     inkscape:pageopacity="0.31764706"
     inkscape:pagecheckerboard="0"
     inkscape:document-units="px"
     showgrid="false"
     inkscape:zoom="0.50709221"
     inkscape:cx="925.86712"
     inkscape:cy="553.15384"
     inkscape:window-width="1920"
     inkscape:window-height="980"
     inkscape:window-x="0"
     inkscape:window-y="25"
     inkscape:window-maximized="1"
     inkscape:current-layer="layer1"
     inkscape:showpageshadow="2"
     inkscape:deskcolor="#2f2f2f"
     inkscape:lockguides="false" /><defs
     id="defs2"><style
       type="text/css"
       id="style6449" /><style
       type="text/css"
       id="style412" /><style
       type="text/css"
       id="style14311" /><style
       type="text/css"
       id="style14846" /><style
       type="text/css"
       id="style11678" /><style
       type="text/css"
       id="style21189" /></defs><g
     inkscape:label="图层 1"
     inkscape:groupmode="layer"
     id="layer1"
     transform="translate(-74.426935,-189.75944)"><g
       id="g71102"
       transform="translate(-3.8525735,197.6438)"><rect
         style="fill:#000000;stroke-width:0.149374"
         id="rect5012-58-4-8-2"
         width="3.175"
         height="5.2916665"
         x="78.27951"
         y="-7.8843503" /><path
         d="m 78.544094,-2.5926839 v -0.4383102 h 0.519653 q -0.477568,-0.4862231 -0.477568,-1.0469766 0,-0.4897719 0.342164,-0.8251597 0.342166,-0.3353867 0.938668,-0.3353867 0.591013,0 0.935007,0.3336129 0.343996,0.333612 0.343996,0.8269335 0,0.5607535 -0.477568,1.0469766 h 0.521481 v 0.4383102 H 79.96216 v -0.4187904 q 0.309229,-0.1117958 0.466589,-0.3620053 0.159188,-0.2502098 0.159188,-0.5767245 0,-0.3353873 -0.182977,-0.5873713 -0.181147,-0.2519843 -0.537949,-0.2519843 -0.354975,0 -0.537951,0.2502095 -0.182974,0.2502098 -0.182974,0.5891461 0,0.3282893 0.157358,0.5784989 0.15919,0.2484351 0.468419,0.3602309 v 0.4187905 z"
         style="font-weight:bold;font-size:14.1111px;font-family:Arial;-inkscape-font-specification:'Arial Bold';text-align:center;text-anchor:middle;fill:#ffffff;stroke-width:0.0553557"
         id="path33379" /><g
         aria-label="m"
         transform="scale(1.2010962,0.83257276)"
         id="text16966-9"
         style="font-size:4.33631px;font-family:'DIN Condensed';-inkscape-font-specification:'DIN Condensed, ';text-align:center;text-anchor:middle;fill:#ffffff;stroke-width:0.0650449"><path
           d="m 65.393674,-6.6097541 v -2.1985091 h 0.442303 v 0.2124792 h 0.0087 q 0.06938,-0.1040715 0.16478,-0.1691161 0.09974,-0.069381 0.251506,-0.069381 0.143098,0 0.238497,0.069381 0.0954,0.069381 0.156107,0.1517708 0.08239,-0.091062 0.182125,-0.1561071 0.09973,-0.065045 0.277524,-0.065045 0.08239,0 0.169116,0.030354 0.08673,0.026018 0.156107,0.091062 0.06938,0.065045 0.112744,0.1691161 0.04336,0.099735 0.04336,0.2471697 v 1.6868245 h -0.442304 v -1.5220448 q 0,-0.1214166 -0.05637,-0.1907976 -0.05637,-0.069381 -0.160443,-0.069381 -0.125753,0 -0.173452,0.078054 -0.0477,0.078054 -0.0477,0.2254881 v 1.4786817 h -0.442303 v -1.5220448 q 0,-0.1214166 -0.05637,-0.1907976 -0.05637,-0.069381 -0.160444,-0.069381 -0.125753,0 -0.173452,0.078054 -0.0477,0.078054 -0.0477,0.2254881 v 1.4786817 z"
           id="path71095" /></g></g></g><style
     type="text/css"
     id="style407194">
	.st0{fill:#DA0414;}
</style></svg>
